<?xml version="1.0" encoding="UTF-8" standalone="no"?>
<!DOCTYPE svg PUBLIC "-//W3C//DTD SVG 1.1//EN" "http://www.w3.org/Graphics/SVG/1.1/DTD/svg11.dtd">
<svg width="100%" height="100%" viewBox="0 0 1219 121" version="1.1" xmlns="http://www.w3.org/2000/svg" xmlns:xlink="http://www.w3.org/1999/xlink" xml:space="preserve" xmlns:serif="http://www.serif.com/" style="fill-rule:evenodd;clip-rule:evenodd;stroke-linejoin:round;stroke-miterlimit:2;">
    <g transform="matrix(1,0,0,1,47.02,-13)">
        <g id="Layer_1-2">
            <g transform="matrix(147.91,0,0,147.91,13.2819,123.169)">
                <path d="M0.189,-0L0.189,-0.283L0.305,-0.283L0.529,-0L0.657,-0L0.393,-0.333L0.651,-0.66L0.528,-0.66L0.306,-0.378L0.189,-0.378L0.189,-0.66L0.08,-0.66L0.08,-0L0.189,-0Z" style="fill-rule:nonzero;"/>
            </g>
            <g transform="matrix(147.91,0,0,147.91,112.234,123.169)">
                <path d="M0.546,-0L0.546,-0.095L0.189,-0.095L0.189,-0.289L0.51,-0.289L0.51,-0.383L0.189,-0.383L0.189,-0.565L0.546,-0.565L0.546,-0.66L0.08,-0.66L0.08,-0L0.546,-0Z" style="fill-rule:nonzero;"/>
            </g>
            <g transform="matrix(147.91,0,0,147.91,201.867,123.169)">
                <path d="M0.129,-0L0.178,-0.151L0.488,-0.151L0.537,-0L0.653,-0L0.43,-0.66L0.236,-0.66L0.013,-0L0.129,-0ZM0.312,-0.565L0.354,-0.565L0.458,-0.245L0.208,-0.245L0.312,-0.565Z" style="fill-rule:nonzero;"/>
            </g>
            <g transform="matrix(147.91,0,0,147.91,300.376,123.169)">
                <path d="M0.189,-0L0.189,-0.24C0.23,-0.236 0.288,-0.234 0.35,-0.234L0.467,-0L0.58,-0L0.455,-0.247C0.557,-0.273 0.602,-0.336 0.602,-0.445L0.602,-0.453C0.602,-0.612 0.522,-0.66 0.334,-0.66L0.08,-0.66L0.08,-0L0.189,-0ZM0.299,-0.328C0.267,-0.328 0.231,-0.33 0.189,-0.335L0.189,-0.565L0.335,-0.565C0.454,-0.565 0.493,-0.539 0.493,-0.459L0.493,-0.439C0.493,-0.352 0.437,-0.328 0.304,-0.328L0.299,-0.328Z" style="fill-rule:nonzero;"/>
            </g>
            <g transform="matrix(147.91,0,0,147.91,396.221,123.169)">
                <path d="M0.552,-0.169L0.182,-0.66L0.08,-0.66L0.08,-0L0.184,-0L0.184,-0.492L0.554,-0L0.656,-0L0.656,-0.66L0.552,-0.66L0.552,-0.169Z" style="fill-rule:nonzero;"/>
            </g>
            <g transform="matrix(147.91,0,0,147.91,505.083,123.169)">
                <path d="M0.546,-0L0.546,-0.095L0.189,-0.095L0.189,-0.289L0.51,-0.289L0.51,-0.383L0.189,-0.383L0.189,-0.565L0.546,-0.565L0.546,-0.66L0.08,-0.66L0.08,-0L0.546,-0Z" style="fill-rule:nonzero;"/>
            </g>
            <g transform="matrix(147.91,0,0,147.91,594.717,123.169)">
                <path d="M0.382,-0L0.382,-0.237L0.643,-0.66L0.525,-0.66L0.338,-0.351L0.318,-0.351L0.131,-0.66L0.011,-0.66L0.273,-0.235L0.273,-0L0.382,-0Z" style="fill-rule:nonzero;"/>
            </g>
            <g transform="matrix(147.91,0,0,147.91,691.006,123.169)">
                <path d="M0.801,-0.66L0.654,-0.66L0.448,-0.193L0.242,-0.66L0.093,-0.66L0.075,-0L0.183,-0L0.192,-0.529L0.388,-0.093L0.506,-0.093L0.702,-0.53L0.711,-0L0.819,-0L0.801,-0.66Z" style="fill-rule:nonzero;"/>
            </g>
            <g transform="matrix(147.91,0,0,147.91,823.238,123.169)">
                <path d="M0.546,-0L0.546,-0.095L0.189,-0.095L0.189,-0.289L0.51,-0.289L0.51,-0.383L0.189,-0.383L0.189,-0.565L0.546,-0.565L0.546,-0.66L0.08,-0.66L0.08,-0L0.546,-0Z" style="fill-rule:nonzero;"/>
            </g>
            <g transform="matrix(147.91,0,0,147.91,909.913,123.169)">
                <path d="M0.285,0.008C0.46,0.008 0.545,-0.051 0.545,-0.176L0.545,-0.193C0.545,-0.308 0.493,-0.35 0.356,-0.373L0.283,-0.385C0.172,-0.403 0.152,-0.422 0.152,-0.479L0.152,-0.483C0.152,-0.546 0.193,-0.573 0.307,-0.573L0.318,-0.573C0.373,-0.573 0.446,-0.565 0.521,-0.542L0.521,-0.638C0.46,-0.66 0.371,-0.668 0.313,-0.668L0.302,-0.668C0.131,-0.668 0.043,-0.609 0.043,-0.486L0.043,-0.469C0.043,-0.344 0.113,-0.313 0.233,-0.294L0.307,-0.282C0.424,-0.263 0.436,-0.234 0.436,-0.181L0.436,-0.177C0.436,-0.111 0.394,-0.087 0.281,-0.087L0.269,-0.087C0.213,-0.087 0.135,-0.095 0.053,-0.12L0.053,-0.025C0.122,-0.002 0.21,0.008 0.274,0.008L0.285,0.008Z" style="fill-rule:nonzero;"/>
            </g>
            <g transform="matrix(147.91,0,0,147.91,996.145,123.169)">
                <path d="M0.527,-0.386L0.189,-0.386L0.189,-0.66L0.08,-0.66L0.08,-0L0.189,-0L0.189,-0.291L0.527,-0.291L0.527,-0L0.636,-0L0.636,-0.66L0.527,-0.66L0.527,-0.386Z" style="fill-rule:nonzero;"/>
            </g>
        </g>
    </g>
</svg>
